# xmcd
#
# Track frame offsets:
#	150
#	13585
#	25453
#	41858
#	62368
#	79447
#	93174
#	107584
#	134245
#	147098
#	167673
#	184776
#	209601
#	221149
#	244467
#	272813
#	286608
#
# Disc length: 4039 seconds
#
# Revision: 0
# Processed by: cddbd v1.5.2PL0 Copyright (c) Steve Scherf et al.
# Submitted via: EasyCDDAExtractor 2010.4.0.0
#
DISCID=040fc511
DTITLE=Richie Arndt and The Bluenatics - The Blue Side Of ...
DYEAR=2010
DGENRE=Blues
TTITLE0=Little Brother o'mine
TTITLE1=One After 909
TTITLE2=Drowning in my soul
TTITLE3=Anything they want me to do
TTITLE4=They don't make them like you anymore
TTITLE5=Make your mind up
TTITLE6=The bad thang
TTITLE7=Today Trouble's taken The Crown
TTITLE8=Rebel Rock
TTITLE9=I can see clearly now
TTITLE10=You've done me wrong
TTITLE11=Rory
TTITLE12=Sweet Little Angel
TTITLE13=It's not always the easy way
TTITLE14=When the Train comes
TTITLE15=Iron, Speed and Steam
TTITLE16=Mississippi
EXTD=
EXTT0=
EXTT1=
EXTT2=
EXTT3=
EXTT4=
EXTT5=
EXTT6=
EXTT7=
EXTT8=
EXTT9=
EXTT10=
EXTT11=
EXTT12=
EXTT13=
EXTT14=
EXTT15=
EXTT16=
PLAYORDER=
